<svg width="18" height="16" viewBox="0 0 18 16" fill="none" xmlns="http://www.w3.org/2000/svg">
<path d="M11.7083 14.2892C11.7083 15.1896 12.418 15.9221 13.2903 15.9221C14.1626 15.9221 14.8723 15.1896 14.8723 14.2892C14.8723 13.3888 14.1626 12.6562 13.2903 12.6562C12.418 12.6562 11.7083 13.3888 11.7083 14.2892ZM13.2903 13.7449C13.581 13.7449 13.8176 13.9891 13.8176 14.2892C13.8176 14.5893 13.581 14.8335 13.2903 14.8335C12.9996 14.8335 12.7629 14.5893 12.7629 14.2892C12.7629 13.9891 12.9996 13.7449 13.2903 13.7449Z" fill="white"/>
<path d="M5.70825 14.2892C5.70825 15.1896 6.41797 15.9221 7.29028 15.9221C8.1626 15.9221 8.87231 15.1896 8.87231 14.2892C8.87231 13.3888 8.1626 12.6562 7.29028 12.6562C6.41797 12.6562 5.70825 13.3888 5.70825 14.2892ZM7.29028 13.7449C7.58101 13.7449 7.81763 13.9891 7.81763 14.2892C7.81763 14.5893 7.58101 14.8335 7.29028 14.8335C6.99956 14.8335 6.76294 14.5893 6.76294 14.2892C6.76294 13.9891 6.99956 13.7449 7.29028 13.7449Z" fill="white"/>
<path d="M5.79892 10.547H5.79974C5.80043 10.547 5.80112 10.5469 5.8018 10.5469H15.3628C15.5982 10.5469 15.8051 10.3907 15.8698 10.1644L17.9792 2.7816C18.0246 2.62244 17.9928 2.45132 17.8932 2.31921C17.7935 2.1871 17.6377 2.10937 17.4722 2.10937H4.58273L4.20577 0.412949C4.15207 0.171661 3.93811 0 3.69092 0H0.526856C0.23558 0 -0.000488281 0.236069 -0.000488281 0.527344C-0.000488281 0.818619 0.23558 1.05469 0.526856 1.05469H3.26794C3.33469 1.3553 5.0719 9.1729 5.17188 9.62265C4.61144 9.86627 4.21826 10.4251 4.21826 11.0742C4.21826 11.9465 4.92798 12.6562 5.80029 12.6562H15.3628C15.6541 12.6562 15.8901 12.4202 15.8901 12.1289C15.8901 11.8376 15.6541 11.6016 15.3628 11.6016H5.80029C5.50957 11.6016 5.27295 11.3649 5.27295 11.0742C5.27295 10.7839 5.50874 10.5477 5.79892 10.547V10.547ZM16.773 3.16406L14.965 9.49219H6.22327L4.81702 3.16406H16.773Z" fill="white"/>
</svg>
